<svg width="512" height="512" version="1.1" xmlns="http://www.w3.org/2000/svg" desc="Created with imagetracer.js version 1.2.6" ><path fill="rgb(234,203,221)" stroke="rgb(234,203,221)" stroke-width="1" opacity="1" d="M 245.5 76 L 252 76.5 L 245.5 77 L 245.5 76 Z " /><path fill="rgb(234,203,221)" stroke="rgb(234,203,221)" stroke-width="1" opacity="1" d="M 260.5 76 L 266 76.5 L 260.5 77 L 260.5 76 Z " /><path fill="rgb(234,203,221)" stroke="rgb(234,203,221)" stroke-width="1" opacity="1" d="M 303.5 88 L 304.5 90 L 303.5 88 Z " /><path fill="rgb(234,203,221)" stroke="rgb(234,203,221)" stroke-width="1" opacity="1" d="M 199.5 94 L 198.5 96 L 199.5 94 Z " /><path fill="rgb(234,203,221)" stroke="rgb(234,203,221)" stroke-width="1" opacity="1" d="M 312.5 94 L 313.5 96 L 312.5 94 Z " /><path fill="rgb(234,203,221)" stroke="rgb(234,203,221)" stroke-width="1" opacity="1" d="M 195.5 97 L 192.5 101 L 195.5 97 Z " /><path fill="rgb(234,203,221)" stroke="rgb(234,203,221)" stroke-width="1" opacity="1" d="M 316.5 97 L 319.5 101 L 316.5 97 Z " /><path fill="rgb(234,203,221)" stroke="rgb(234,203,221)" stroke-width="1" opacity="1" d="M 184.5 108 L 181.5 112 L 184.5 108 Z " /><path fill="rgb(234,203,221)" stroke="rgb(234,203,221)" stroke-width="1" opacity="1" d="M 327.5 108 L 330.5 112 L 327.5 108 Z " /><path fill="rgb(234,203,221)" stroke="rgb(234,203,221)" stroke-width="1" opacity="1" d="M 179.5 114 L 178.5 116 L 179.5 114 Z " /><path fill="rgb(234,203,221)" stroke="rgb(234,203,221)" stroke-width="1" opacity="1" d="M 332.5 114 L 333.5 116 L 332.5 114 Z " /><path fill="rgb(234,203,221)" stroke="rgb(234,203,221)" stroke-width="1" opacity="1" d="M 173.5 123 L 172.5 125 L 173.5 123 Z " /><path fill="rgb(234,203,221)" stroke="rgb(234,203,221)" stroke-width="1" opacity="1" d="M 227.5 127 L 235 127.5 L 227.5 128 L 227.5 127 Z " /><path fill="rgb(234,203,221)" stroke="rgb(234,203,221)" stroke-width="1" opacity="1" d="M 277.5 127 L 285 127.5 L 277.5 128 L 277.5 127 Z " /><path fill="rgb(234,203,221)" stroke="rgb(234,203,221)" stroke-width="1" opacity="1" d="M 222.5 128 L 225 128.5 L 222.5 129 L 222.5 128 Z " /><path fill="rgb(234,203,221)" stroke="rgb(234,203,221)" stroke-width="1" opacity="1" d="M 237.5 128 L 240 128.5 L 237.5 129 L 237.5 128 Z " /><path fill="rgb(234,203,221)" stroke="rgb(234,203,221)" stroke-width="1" opacity="1" d="M 272.5 128 L 275 128.5 L 272.5 129 L 272.5 128 Z " /><path fill="rgb(234,203,221)" stroke="rgb(234,203,221)" stroke-width="1" opacity="1" d="M 287.5 128 L 290 128.5 L 287.5 129 L 287.5 128 Z " /><path fill="rgb(234,203,221)" stroke="rgb(234,203,221)" stroke-width="1" opacity="1" d="M 219.5 129 L 221 129.5 L 217.5 131 L 217.5 130 L 219.5 129 Z " /><path fill="rgb(234,203,221)" stroke="rgb(234,203,221)" stroke-width="1" opacity="1" d="M 241.5 129 L 248 132.5 L 246.5 132 L 241.5 130 L 241.5 129 Z " /><path fill="rgb(234,203,221)" stroke="rgb(234,203,221)" stroke-width="1" opacity="1" d="M 269.5 129 L 271 129.5 L 264.5 133 L 265.5 131 L 269.5 129 Z " /><path fill="rgb(234,203,221)" stroke="rgb(234,203,221)" stroke-width="1" opacity="1" d="M 291.5 129 L 295 130.5 L 293.5 131 L 291.5 129 Z " /><path fill="rgb(234,203,221)" stroke="rgb(234,203,221)" stroke-width="1" opacity="1" d="M 215.5 131 L 214.5 133 L 215.5 131 Z " /><path fill="rgb(234,203,221)" stroke="rgb(234,203,221)" stroke-width="1" opacity="1" d="M 296.5 131 L 297.5 133 L 296.5 131 Z " /><path fill="rgb(234,203,221)" stroke="rgb(234,203,221)" stroke-width="1" opacity="1" d="M 212.5 133 L 205.5 141 L 212.5 133 Z " /><path fill="rgb(234,203,221)" stroke="rgb(234,203,221)" stroke-width="1" opacity="1" d="M 249.5 133 L 256.5 139 L 263 133.5 L 255.5 140 L 249.5 133 Z " /><path fill="rgb(234,203,221)" stroke="rgb(234,203,221)" stroke-width="1" opacity="1" d="M 299.5 133 L 306.5 141 L 299.5 133 Z " /><path fill="rgb(234,203,221)" stroke="rgb(234,203,221)" stroke-width="1" opacity="1" d="M 200.5 151 L 201 154.5 L 200 154.5 L 200.5 151 Z " /><path fill="rgb(234,203,221)" stroke="rgb(234,203,221)" stroke-width="1" opacity="1" d="M 311.5 151 L 312 154.5 L 311 154.5 L 311.5 151 Z " /><path fill="rgb(234,203,221)" stroke="rgb(234,203,221)" stroke-width="1" opacity="1" d="M 350.5 155 L 351 157.5 L 350 157.5 L 350.5 155 Z " /><path fill="rgb(234,203,221)" stroke="rgb(234,203,221)" stroke-width="1" opacity="1" d="M 160.5 161 L 161 167.5 L 160 167.5 L 160.5 161 Z " /><path fill="rgb(234,203,221)" stroke="rgb(234,203,221)" stroke-width="1" opacity="1" d="M 200.5 162 L 201 165.5 L 200 165.5 L 200.5 162 Z " /><path fill="rgb(234,203,221)" stroke="rgb(234,203,221)" stroke-width="1" opacity="1" d="M 311.5 162 L 312 165.5 L 311 165.5 L 311.5 162 Z " /><path fill="rgb(234,203,221)" stroke="rgb(234,203,221)" stroke-width="1" opacity="1" d="M 351.5 162 L 352 167.5 L 351 167.5 L 351.5 162 Z " /><path fill="rgb(234,203,221)" stroke="rgb(234,203,221)" stroke-width="1" opacity="1" d="M 160.5 176 L 161 182.5 L 160 182.5 L 160.5 176 Z " /><path fill="rgb(234,203,221)" stroke="rgb(234,203,221)" stroke-width="1" opacity="1" d="M 351.5 176 L 352 182.5 L 351 182.5 L 351.5 176 Z " /><path fill="rgb(234,203,221)" stroke="rgb(234,203,221)" stroke-width="1" opacity="1" d="M 207.5 183 L 210 186.5 L 208 185.5 L 207.5 183 Z " /><path fill="rgb(234,203,221)" stroke="rgb(234,203,221)" stroke-width="1" opacity="1" d="M 304.5 183 L 304 184.5 L 302.5 187 L 303 185.5 L 304.5 183 Z " /><path fill="rgb(234,203,221)" stroke="rgb(234,203,221)" stroke-width="1" opacity="1" d="M 210.5 188 L 216 194.5 L 212 191.5 L 210.5 188 Z " /><path fill="rgb(234,203,221)" stroke="rgb(234,203,221)" stroke-width="1" opacity="1" d="M 301.5 188 L 300 190.5 L 296.5 195 L 299 191.5 L 301.5 188 Z " /><path fill="rgb(234,203,221)" stroke="rgb(234,203,221)" stroke-width="1" opacity="1" d="M 216.5 196 L 220.5 201 L 216.5 196 Z " /><path fill="rgb(234,203,221)" stroke="rgb(234,203,221)" stroke-width="1" opacity="1" d="M 295.5 196 L 291.5 201 L 295.5 196 Z " /><path fill="rgb(234,203,221)" stroke="rgb(234,203,221)" stroke-width="1" opacity="1" d="M 290.5 202 L 280.5 213 L 290.5 202 Z " /><path fill="rgb(234,203,221)" stroke="rgb(234,203,221)" stroke-width="1" opacity="1" d="M 222.5 203 L 231.5 213 L 222.5 203 Z " /><path fill="rgb(234,203,221)" stroke="rgb(234,203,221)" stroke-width="1" opacity="1" d="M 234.5 214 L 239.5 220 L 234.5 214 Z " /><path fill="rgb(234,203,221)" stroke="rgb(234,203,221)" stroke-width="1" opacity="1" d="M 277.5 214 L 272.5 220 L 277.5 214 Z " /><path fill="rgb(234,203,221)" stroke="rgb(234,203,221)" stroke-width="1" opacity="1" d="M 172.5 219 L 173.5 221 L 172.5 219 Z " /><path fill="rgb(234,203,221)" stroke="rgb(234,203,221)" stroke-width="1" opacity="1" d="M 241.5 220 L 244.5 224 L 241.5 220 Z " /><path fill="rgb(234,203,221)" stroke="rgb(234,203,221)" stroke-width="1" opacity="1" d="M 270.5 220 L 267.5 224 L 270.5 220 Z " /><path fill="rgb(234,203,221)" stroke="rgb(234,203,221)" stroke-width="1" opacity="1" d="M 246.5 224 L 248.5 227 L 246.5 224 Z " /><path fill="rgb(234,203,221)" stroke="rgb(234,203,221)" stroke-width="1" opacity="1" d="M 265.5 224 L 263.5 227 L 265.5 224 Z " /><path fill="rgb(234,203,221)" stroke="rgb(234,203,221)" stroke-width="1" opacity="1" d="M 250.5 227 L 252.5 230 L 250.5 227 Z " /><path fill="rgb(234,203,221)" stroke="rgb(234,203,221)" stroke-width="1" opacity="1" d="M 261.5 227 L 259.5 230 L 261.5 227 Z " /><path fill="rgb(234,203,221)" stroke="rgb(234,203,221)" stroke-width="1" opacity="1" d="M 178.5 228 L 179.5 230 L 178.5 228 Z " /><path fill="rgb(234,203,221)" stroke="rgb(234,203,221)" stroke-width="1" opacity="1" d="M 333.5 228 L 332.5 230 L 333.5 228 Z " /><path fill="rgb(234,203,221)" stroke="rgb(234,203,221)" stroke-width="1" opacity="1" d="M 254.5 230 L 256.5 231 L 258 230.5 L 255.5 232 L 254.5 230 Z " /><path fill="rgb(234,203,221)" stroke="rgb(234,203,221)" stroke-width="1" opacity="1" d="M 181.5 232 L 184.5 236 L 181.5 232 Z " /><path fill="rgb(234,203,221)" stroke="rgb(234,203,221)" stroke-width="1" opacity="1" d="M 330.5 232 L 327.5 236 L 330.5 232 Z " /><path fill="rgb(234,203,221)" stroke="rgb(234,203,221)" stroke-width="1" opacity="1" d="M 192.5 243 L 195.5 247 L 192.5 243 Z " /><path fill="rgb(234,203,221)" stroke="rgb(234,203,221)" stroke-width="1" opacity="1" d="M 319.5 243 L 316.5 247 L 319.5 243 Z " /><path fill="rgb(234,203,221)" stroke="rgb(234,203,221)" stroke-width="1" opacity="1" d="M 198.5 248 L 199.5 250 L 198.5 248 Z " /><path fill="rgb(234,203,221)" stroke="rgb(234,203,221)" stroke-width="1" opacity="1" d="M 313.5 248 L 312.5 250 L 313.5 248 Z " /><path fill="rgb(234,203,221)" stroke="rgb(234,203,221)" stroke-width="1" opacity="1" d="M 304.5 254 L 303.5 256 L 304.5 254 Z " /><path fill="rgb(234,203,221)" stroke="rgb(234,203,221)" stroke-width="1" opacity="1" d="M 245.5 267 L 252 267.5 L 245.5 268 L 245.5 267 Z " /><path fill="rgb(234,203,221)" stroke="rgb(234,203,221)" stroke-width="1" opacity="1" d="M 260.5 267 L 267 267.5 L 260.5 268 L 260.5 267 Z " /><path fill="rgb(0,0,0)" stroke="rgb(0,0,0)" stroke-width="1" opacity="0" d="M 0 0 L 512 0 L 512 512 L 0 512 L 0 0 Z M 240 28 L 219 32 L 201 38 Q 178 48 161 63 Q 143 78 131 99 L 118 128 L 112 156 L 112 189 L 113 190 L 115 207 Q 122 237 134 264 Q 151 302 173 337 Q 198 377 226 413 L 206 414 L 205 415 L 198 415 L 176 419 L 150 427 L 137 434 L 128 444 Q 126 452 130 456 L 140 464 L 150 469 L 168 475 L 192 480 L 205 481 L 206 482 L 215 482 L 216 483 L 227 483 L 228 484 L 285 484 L 286 483 L 297 483 L 298 482 L 307 482 L 315 480 L 321 480 L 345 475 L 363 469 L 376 462 L 384 453 Q 386 445 383 442 L 373 432 L 355 424 L 315 415 L 285 413 Q 328 360 361 299 L 385 247 L 393 223 L 400 189 L 400 156 L 394 128 Q 384 98 365 77 Q 342 50 307 36 L 286 30 L 274 29 L 273 28 L 240 28 Z " /><path fill="rgb(230,241,255)" stroke="rgb(230,241,255)" stroke-width="1" opacity="1" d="M 252.5 76 L 255 76.5 L 252.5 77 L 252.5 76 Z " /><path fill="rgb(230,241,255)" stroke="rgb(230,241,255)" stroke-width="1" opacity="1" d="M 257.5 76 L 260 76.5 L 257.5 77 L 257.5 76 Z " /><path fill="rgb(230,241,255)" stroke="rgb(230,241,255)" stroke-width="1" opacity="1" d="M 197.5 96 L 196.5 98 L 197.5 96 Z " /><path fill="rgb(230,241,255)" stroke="rgb(230,241,255)" stroke-width="1" opacity="1" d="M 314.5 96 L 315.5 98 L 314.5 96 Z " /><path fill="rgb(230,241,255)" stroke="rgb(230,241,255)" stroke-width="1" opacity="1" d="M 191.5 101 L 185.5 108 L 191.5 101 Z " /><path fill="rgb(230,241,255)" stroke="rgb(230,241,255)" stroke-width="1" opacity="1" d="M 320.5 101 L 326.5 108 L 320.5 101 Z " /><path fill="rgb(230,241,255)" stroke="rgb(230,241,255)" stroke-width="1" opacity="1" d="M 181.5 112 L 180.5 114 L 181.5 112 Z " /><path fill="rgb(230,241,255)" stroke="rgb(230,241,255)" stroke-width="1" opacity="1" d="M 330.5 112 L 331.5 114 L 330.5 112 Z " /><path fill="rgb(230,241,255)" stroke="rgb(230,241,255)" stroke-width="1" opacity="1" d="M 333.5 116 L 334.5 118 L 333.5 116 Z " /><path fill="rgb(230,241,255)" stroke="rgb(230,241,255)" stroke-width="1" opacity="1" d="M 210.5 134 L 206.5 139 L 210.5 134 Z " /><path fill="rgb(230,241,255)" stroke="rgb(230,241,255)" stroke-width="1" opacity="1" d="M 260.5 134 L 257.5 138 L 260.5 134 Z " /><path fill="rgb(230,241,255)" stroke="rgb(230,241,255)" stroke-width="1" opacity="1" d="M 301.5 134 L 305.5 139 L 301.5 134 Z " /><path fill="rgb(230,241,255)" stroke="rgb(230,241,255)" stroke-width="1" opacity="1" d="M 252.5 135 L 254.5 138 L 252.5 135 Z " /><path fill="rgb(230,241,255)" stroke="rgb(230,241,255)" stroke-width="1" opacity="1" d="M 160.5 168 L 161 175.5 L 160 175.5 L 160.5 168 Z " /><path fill="rgb(230,241,255)" stroke="rgb(230,241,255)" stroke-width="1" opacity="1" d="M 351.5 168 L 352 175.5 L 351 175.5 L 351.5 168 Z " /><path fill="rgb(230,241,255)" stroke="rgb(230,241,255)" stroke-width="1" opacity="1" d="M 214.5 194 L 215.5 196 L 214.5 194 Z " /><path fill="rgb(230,241,255)" stroke="rgb(230,241,255)" stroke-width="1" opacity="1" d="M 297.5 194 L 296.5 196 L 297.5 194 Z " /><path fill="rgb(230,241,255)" stroke="rgb(230,241,255)" stroke-width="1" opacity="1" d="M 218.5 199 L 221.5 203 L 218.5 199 Z " /><path fill="rgb(230,241,255)" stroke="rgb(230,241,255)" stroke-width="1" opacity="1" d="M 293.5 199 L 291.5 202 L 293.5 199 Z " /><path fill="rgb(230,241,255)" stroke="rgb(230,241,255)" stroke-width="1" opacity="1" d="M 232.5 213 L 235.5 217 L 232.5 213 Z " /><path fill="rgb(230,241,255)" stroke="rgb(230,241,255)" stroke-width="1" opacity="1" d="M 279.5 213 L 276.5 217 L 279.5 213 Z " /><path fill="rgb(230,241,255)" stroke="rgb(230,241,255)" stroke-width="1" opacity="1" d="M 240.5 220 L 242.5 223 L 240.5 220 Z " /><path fill="rgb(230,241,255)" stroke="rgb(230,241,255)" stroke-width="1" opacity="1" d="M 271.5 220 L 269.5 223 L 271.5 220 Z " /><path fill="rgb(230,241,255)" stroke="rgb(230,241,255)" stroke-width="1" opacity="1" d="M 245.5 224 L 246.5 226 L 245.5 224 Z " /><path fill="rgb(230,241,255)" stroke="rgb(230,241,255)" stroke-width="1" opacity="1" d="M 266.5 224 L 265.5 226 L 266.5 224 Z " /><path fill="rgb(230,241,255)" stroke="rgb(230,241,255)" stroke-width="1" opacity="1" d="M 334.5 226 L 333.5 228 L 334.5 226 Z " /><path fill="rgb(230,241,255)" stroke="rgb(230,241,255)" stroke-width="1" opacity="1" d="M 249.5 227 L 250.5 229 L 249.5 227 Z " /><path fill="rgb(230,241,255)" stroke="rgb(230,241,255)" stroke-width="1" opacity="1" d="M 262.5 227 L 261.5 229 L 262.5 227 Z " /><path fill="rgb(230,241,255)" stroke="rgb(230,241,255)" stroke-width="1" opacity="1" d="M 180.5 230 L 181.5 232 L 180.5 230 Z " /><path fill="rgb(230,241,255)" stroke="rgb(230,241,255)" stroke-width="1" opacity="1" d="M 331.5 230 L 330.5 232 L 331.5 230 Z " /><path fill="rgb(230,241,255)" stroke="rgb(230,241,255)" stroke-width="1" opacity="1" d="M 185.5 236 L 191.5 243 L 185.5 236 Z " /><path fill="rgb(230,241,255)" stroke="rgb(230,241,255)" stroke-width="1" opacity="1" d="M 326.5 236 L 320.5 243 L 326.5 236 Z " /><path fill="rgb(230,241,255)" stroke="rgb(230,241,255)" stroke-width="1" opacity="1" d="M 196.5 246 L 197.5 248 L 196.5 246 Z " /><path fill="rgb(230,241,255)" stroke="rgb(230,241,255)" stroke-width="1" opacity="1" d="M 315.5 246 L 314.5 248 L 315.5 246 Z " /><path fill="rgb(230,241,255)" stroke="rgb(230,241,255)" stroke-width="1" opacity="1" d="M 200.5 249 L 201.5 251 L 200.5 249 Z " /><path fill="rgb(230,241,255)" stroke="rgb(230,241,255)" stroke-width="1" opacity="1" d="M 252.5 267 L 255 267.5 L 252.5 268 L 252.5 267 Z " /><path fill="rgb(230,241,255)" stroke="rgb(230,241,255)" stroke-width="1" opacity="1" d="M 257.5 267 L 260 267.5 L 257.5 268 L 257.5 267 Z " /><path fill="rgb(230,242,255)" stroke="rgb(230,242,255)" stroke-width="1" opacity="1" d="M 255.5 76 L 257.5 77 L 269.5 77 L 291.5 83 Q 315.1 92.9 330 111.5 Q 341.8 125.7 348 145.5 L 351 159.5 L 351 184.5 Q 343.5 225 316.5 246 Q 305.8 255.3 291.5 261 L 269.5 267 L 257.5 267 L 255.5 268 L 254.5 267 L 242.5 267 L 220.5 261 Q 196.9 251.1 182 232.5 Q 169 217.5 163 195.5 L 161 185.5 L 161 158.5 Q 168.7 118.7 195.5 98 Q 206.2 88.7 220.5 83 L 232.5 79 L 242.5 77 L 254.5 77 L 255.5 76 Z M 227 127 Q 217 129 211 134 Q 203 140 200 151 L 200 167 L 203 177 Q 209 189 218 200 Q 234 218 256 232 L 262 229 L 277 217 L 301 191 Q 309 181 312 167 L 312 151 L 306 139 Q 299 129 286 127 Q 269 126 261 134 L 257 139 Q 254 140 255 138 Q 250 131 241 128 L 227 127 Z " /><path fill="rgb(50,84,128)" stroke="rgb(50,84,128)" stroke-width="1" opacity="0.9921568627450981" d="M 226.5 412 L 255.5 447 L 262 441.5 L 284.5 413 L 297.5 413 L 298.5 414 L 314.5 415 L 354.5 424 L 372.5 432 L 383 441.5 Q 385.5 445 384 452.5 L 375.5 462 L 362.5 469 L 344.5 475 L 320.5 480 L 314.5 480 L 306.5 482 L 297.5 482 L 296.5 483 L 285.5 483 L 284.5 484 L 227.5 484 L 226.5 483 L 215.5 483 L 214.5 482 L 205.5 482 L 204.5 481 L 191.5 480 L 167.5 475 L 149.5 469 L 139.5 464 L 130 455.5 Q 126.2 452.3 128 443.5 L 136.5 434 L 149.5 427 L 175.5 419 L 197.5 415 L 213.5 414 L 214.5 413 L 225.5 413 L 226.5 412 Z " /><path fill="rgb(249,71,90)" stroke="rgb(249,71,90)" stroke-width="1" opacity="0.9882352941176471" d="M 239.5 28 L 272.5 28 L 273.5 29 L 285.5 30 L 306.5 36 Q 342 50 365 76.5 Q 384 97.5 394 127.5 L 400 155.5 L 400 188.5 L 393 222.5 L 385 246.5 Q 372 280 355 309.5 Q 312.3 384.8 256.5 447 L 250 441.5 L 211 392.5 L 180 347.5 Q 156.8 312.2 138 272.5 Q 123.7 242.3 115 206.5 L 113 189.5 L 112 188.5 L 112 155.5 L 118 127.5 L 131 98.5 Q 143.2 78.2 160.5 63 Q 177.6 47.6 200.5 38 L 218.5 32 L 239.5 28 Z M 246 76 L 231 79 L 217 84 L 196 97 Q 181 108 172 125 L 163 147 L 160 162 L 160 183 L 163 198 Q 169 218 181 233 Q 193 247 211 257 L 231 265 L 246 268 L 267 268 L 282 265 Q 302 259 317 247 Q 331 235 341 218 L 349 198 L 352 183 L 352 163 L 349 147 Q 343 126 331 112 Q 317 94 296 84 L 273 77 Q 267 79 266 76 L 246 76 Z " /><path fill="rgb(249,71,90)" stroke="rgb(249,71,90)" stroke-width="1" opacity="0.9882352941176471" d="M 225.5 128 L 240.5 129 Q 250.3 132.7 256.5 140 Q 261.8 132.3 271.5 129 L 286.5 128 Q 300.6 130.9 307 141.5 Q 312.3 148.7 312 161.5 L 308 176.5 L 302 187.5 Q 291.8 202.3 278.5 214 L 255.5 231 Q 236.2 218.3 221 201.5 Q 210.7 190.8 204 176.5 L 201 167.5 L 200 155.5 Q 202.5 140 213.5 133 L 225.5 128 Z " /></svg>