<?xml version="1.0" standalone="no"?>
<!DOCTYPE svg PUBLIC "-//W3C//DTD SVG 20010904//EN"
 "http://www.w3.org/TR/2001/REC-SVG-20010904/DTD/svg10.dtd">
<svg version="1.0" xmlns="http://www.w3.org/2000/svg"
 width="15.000000pt" height="13.000000pt" viewBox="0 -20 512.000000 512.000000"
 preserveAspectRatio="xMidYMid meet">

<g transform="translate(0.000000,512.000000) scale(0.100000,-0.100000)"
fill="#f2ccd5" stroke="none">
<path d="M1265 4633 c-700 -88 -1225 -647 -1261 -1343 -20 -387 193 -806 688
-1349 370 -408 1097 -998 1707 -1388 156 -100 165 -100 332 5 671 422 1344
977 1768 1457 328 371 522 700 598 1015 24 98 23 328 -1 450 -39 201 -128 407
-246 572 -67 95 -254 276 -350 340 -242 161 -473 235 -770 245 -420 14 -768
-96 -1097 -345 l-73 -55 -72 55 c-112 84 -155 111 -263 165 -188 94 -339 141
-543 168 -97 13 -341 18 -417 8z"/>
</g>
</svg>
